# xmcd
# Copyright (C) 1995-1998 Ti Kan
#
# Track frame offsets:
#       150
#       13498
#       34198
#       52248
#       71548
#       93192
#       115097
#       130176
#       150911
#       168971
#       184182
#       199490
#       213461
#
# Disc length: 3366 seconds
#
# Revision: 0
# Processed by: cddbd v1.4PL0 Copyright (c) Steve Scherf et al.
# Submitted via: CD-Transfer v1.0
#
DISCID=b70d240d
DTITLE=Pomme De Terre - Höiwätter
DYEAR=2000
DGENRE=
TTITLE0=Zyt Wo's Nümme Git
TTITLE1=Einisch Meh
TTITLE2=Summer
TTITLE3=Arbeitslos Oder Bügle
TTITLE4=Luft
TTITLE5=Tröim
TTITLE6=Schöne Tag
TTITLE7=Hie Ir Ch
TTITLE8=Zmitts Im Läbe
TTITLE9=Zouberouge
TTITLE10=Schachmatt
TTITLE11=Wäg Vo Hie
TTITLE12=Fründin
EXTD=
EXTT0=
EXTT1=
EXTT2=
EXTT3=
EXTT4=
EXTT5=
EXTT6=
EXTT7=
EXTT8=
EXTT9=
EXTT10=
EXTT11=
EXTT12=
PLAYORDER=
